<mxfile host="app.diagrams.net" modified="2021-01-26T02:22:17.724Z" agent="5.0 (Windows NT 10.0; Win64; x64) AppleWebKit/537.36 (KHTML, like Gecko) Chrome/87.0.4280.141 Safari/537.36" etag="nfbIXBClHRNYJ9D8Sfb4" version="14.2.7" type="github">
  <diagram id="-a6WbMNMecBKhR_LUQmN" name="Page-1">
    <mxGraphModel dx="2249" dy="762" grid="1" gridSize="10" guides="1" tooltips="1" connect="1" arrows="1" fold="1" page="1" pageScale="1" pageWidth="827" pageHeight="1169" math="0" shadow="0">
      <root>
        <mxCell id="0" />
        <mxCell id="1" parent="0" />
        <mxCell id="vOmSmcSsYQoTvt3sn1gA-2" value="" style="rounded=0;whiteSpace=wrap;html=1;fillColor=#D5E8D4;strokeWidth=3;" parent="1" vertex="1">
          <mxGeometry y="430" width="930" height="410" as="geometry" />
        </mxCell>
        <mxCell id="-X7AAwdDszs8J3Nbo_TD-4" style="edgeStyle=orthogonalEdgeStyle;rounded=0;orthogonalLoop=1;jettySize=auto;html=1;exitX=1;exitY=0.5;exitDx=0;exitDy=0;entryX=0.439;entryY=1.038;entryDx=0;entryDy=0;entryPerimeter=0;" parent="1" source="hpvgZ9Z2Bp3K3JRqvIrx-3" target="-X7AAwdDszs8J3Nbo_TD-3" edge="1">
          <mxGeometry relative="1" as="geometry" />
        </mxCell>
        <mxCell id="hpvgZ9Z2Bp3K3JRqvIrx-3" value="ingress-controller" style="ellipse;whiteSpace=wrap;html=1;aspect=fixed;fillColor=#e1d5e7;strokeColor=#9673a6;" parent="1" vertex="1">
          <mxGeometry x="418" y="530" width="80" height="80" as="geometry" />
        </mxCell>
        <mxCell id="hpvgZ9Z2Bp3K3JRqvIrx-8" style="edgeStyle=orthogonalEdgeStyle;rounded=0;orthogonalLoop=1;jettySize=auto;html=1;shape=link;" parent="1" source="hpvgZ9Z2Bp3K3JRqvIrx-5" target="hpvgZ9Z2Bp3K3JRqvIrx-3" edge="1">
          <mxGeometry relative="1" as="geometry" />
        </mxCell>
        <mxCell id="hpvgZ9Z2Bp3K3JRqvIrx-5" value="&lt;b&gt;&amp;nbsp;defalut&lt;br&gt;ingress A&lt;/b&gt;" style="shape=process;whiteSpace=wrap;html=1;backgroundOutline=1;fillColor=#f8cecc;strokeColor=#b85450;" parent="1" vertex="1">
          <mxGeometry x="130" y="545" width="120" height="50" as="geometry" />
        </mxCell>
        <mxCell id="hpvgZ9Z2Bp3K3JRqvIrx-7" style="edgeStyle=orthogonalEdgeStyle;rounded=0;orthogonalLoop=1;jettySize=auto;html=1;entryX=0.5;entryY=1;entryDx=0;entryDy=0;" parent="1" source="hpvgZ9Z2Bp3K3JRqvIrx-6" target="hpvgZ9Z2Bp3K3JRqvIrx-3" edge="1">
          <mxGeometry relative="1" as="geometry" />
        </mxCell>
        <mxCell id="hpvgZ9Z2Bp3K3JRqvIrx-6" value="&lt;b&gt;灰度ingress B&lt;/b&gt;" style="shape=process;whiteSpace=wrap;html=1;backgroundOutline=1;fillColor=#fff2cc;strokeColor=#d6b656;" parent="1" vertex="1">
          <mxGeometry x="128" y="610" width="120" height="50" as="geometry" />
        </mxCell>
        <mxCell id="fNy8cyDAZZY_VoHiJf9O-12" style="edgeStyle=orthogonalEdgeStyle;rounded=0;orthogonalLoop=1;jettySize=auto;html=1;dashed=1;entryX=0.5;entryY=0;entryDx=0;entryDy=0;" edge="1" parent="1" source="hpvgZ9Z2Bp3K3JRqvIrx-11" target="hpvgZ9Z2Bp3K3JRqvIrx-5">
          <mxGeometry relative="1" as="geometry">
            <mxPoint x="200" y="500" as="targetPoint" />
          </mxGeometry>
        </mxCell>
        <mxCell id="hpvgZ9Z2Bp3K3JRqvIrx-11" value="Actor" style="shape=umlActor;verticalLabelPosition=bottom;verticalAlign=top;html=1;outlineConnect=0;" parent="1" vertex="1">
          <mxGeometry x="-130" y="470" width="30" height="60" as="geometry" />
        </mxCell>
        <mxCell id="hpvgZ9Z2Bp3K3JRqvIrx-15" value="&lt;b&gt;&amp;nbsp;defalut&lt;br&gt;ingress B&lt;/b&gt;" style="shape=process;whiteSpace=wrap;html=1;backgroundOutline=1;fillColor=#f8cecc;strokeColor=#b85450;" parent="1" vertex="1">
          <mxGeometry x="530" y="650" width="120" height="60" as="geometry" />
        </mxCell>
        <mxCell id="vOmSmcSsYQoTvt3sn1gA-5" value="&lt;span style=&quot;font-size: 17px&quot;&gt;controller&lt;/span&gt;" style="text;html=1;strokeColor=none;fillColor=none;align=center;verticalAlign=middle;whiteSpace=wrap;rounded=0;" parent="1" vertex="1">
          <mxGeometry x="800" y="810" width="130" height="25" as="geometry" />
        </mxCell>
        <mxCell id="fjbLA8fiJLUt6OWSz7z5-8" style="edgeStyle=orthogonalEdgeStyle;rounded=0;orthogonalLoop=1;jettySize=auto;html=1;entryX=0.5;entryY=1;entryDx=0;entryDy=0;" parent="1" source="fjbLA8fiJLUt6OWSz7z5-1" target="hpvgZ9Z2Bp3K3JRqvIrx-6" edge="1">
          <mxGeometry relative="1" as="geometry" />
        </mxCell>
        <mxCell id="fjbLA8fiJLUt6OWSz7z5-1" value="&lt;b&gt;Annotation&lt;/b&gt;" style="shape=process;whiteSpace=wrap;html=1;backgroundOutline=1;fillColor=#33FF33;dashed=1;" parent="1" vertex="1">
          <mxGeometry x="139" y="695" width="98" height="40" as="geometry" />
        </mxCell>
        <mxCell id="3VX2ZSSgDS8gGPlXFFOe-15" value="" style="rounded=0;whiteSpace=wrap;html=1;fillColor=#D5E8D4;strokeWidth=3;" parent="1" vertex="1">
          <mxGeometry x="42" y="2185" width="746" height="235" as="geometry" />
        </mxCell>
        <mxCell id="3VX2ZSSgDS8gGPlXFFOe-16" value="" style="rounded=0;whiteSpace=wrap;html=1;fillColor=#7EA6E0;strokeWidth=2;" parent="1" vertex="1">
          <mxGeometry x="68" y="1880" width="720" height="130" as="geometry" />
        </mxCell>
        <mxCell id="3VX2ZSSgDS8gGPlXFFOe-17" value="RETFul&lt;br&gt;Controller" style="rounded=1;whiteSpace=wrap;html=1;fillColor=#dae8fc;strokeColor=#6c8ebf;" parent="1" vertex="1">
          <mxGeometry x="331" y="1780" width="120" height="60" as="geometry" />
        </mxCell>
        <mxCell id="3VX2ZSSgDS8gGPlXFFOe-18" value="ingress-controller&lt;br&gt;Pod A" style="ellipse;whiteSpace=wrap;html=1;aspect=fixed;fillColor=#e1d5e7;strokeColor=#9673a6;" parent="1" vertex="1">
          <mxGeometry x="348" y="2220" width="80" height="80" as="geometry" />
        </mxCell>
        <mxCell id="3VX2ZSSgDS8gGPlXFFOe-19" style="edgeStyle=orthogonalEdgeStyle;rounded=0;orthogonalLoop=1;jettySize=auto;html=1;" parent="1" source="3VX2ZSSgDS8gGPlXFFOe-20" target="3VX2ZSSgDS8gGPlXFFOe-18" edge="1">
          <mxGeometry relative="1" as="geometry" />
        </mxCell>
        <mxCell id="3VX2ZSSgDS8gGPlXFFOe-20" value="&lt;b&gt;&amp;nbsp;defalut&lt;br&gt;ingress A&lt;/b&gt;" style="shape=process;whiteSpace=wrap;html=1;backgroundOutline=1;fillColor=#f8cecc;strokeColor=#b85450;" parent="1" vertex="1">
          <mxGeometry x="188" y="2235" width="120" height="50" as="geometry" />
        </mxCell>
        <mxCell id="3VX2ZSSgDS8gGPlXFFOe-21" style="edgeStyle=orthogonalEdgeStyle;rounded=0;orthogonalLoop=1;jettySize=auto;html=1;entryX=0.5;entryY=1;entryDx=0;entryDy=0;" parent="1" source="3VX2ZSSgDS8gGPlXFFOe-22" target="3VX2ZSSgDS8gGPlXFFOe-18" edge="1">
          <mxGeometry relative="1" as="geometry" />
        </mxCell>
        <mxCell id="3VX2ZSSgDS8gGPlXFFOe-22" value="&lt;b&gt;灰度ingress&lt;/b&gt;" style="shape=process;whiteSpace=wrap;html=1;backgroundOutline=1;fillColor=#fff2cc;strokeColor=#d6b656;" parent="1" vertex="1">
          <mxGeometry x="188" y="2295" width="120" height="50" as="geometry" />
        </mxCell>
        <mxCell id="3VX2ZSSgDS8gGPlXFFOe-23" value="lb crd&lt;br&gt;负载均衡器crd" style="ellipse;whiteSpace=wrap;html=1;fillColor=#e1d5e7;strokeColor=#9673a6;" parent="1" vertex="1">
          <mxGeometry x="415" y="1910" width="110" height="70" as="geometry" />
        </mxCell>
        <mxCell id="3VX2ZSSgDS8gGPlXFFOe-24" style="edgeStyle=orthogonalEdgeStyle;rounded=0;orthogonalLoop=1;jettySize=auto;html=1;" parent="1" target="3VX2ZSSgDS8gGPlXFFOe-17" edge="1">
          <mxGeometry relative="1" as="geometry">
            <mxPoint x="391" y="1710" as="sourcePoint" />
          </mxGeometry>
        </mxCell>
        <mxCell id="3VX2ZSSgDS8gGPlXFFOe-25" value="Actor" style="shape=umlActor;verticalLabelPosition=bottom;verticalAlign=top;html=1;outlineConnect=0;" parent="1" vertex="1">
          <mxGeometry x="372" y="1640" width="30" height="60" as="geometry" />
        </mxCell>
        <mxCell id="3VX2ZSSgDS8gGPlXFFOe-26" value="ingress-controller&lt;br&gt;Pod B" style="ellipse;whiteSpace=wrap;html=1;aspect=fixed;fillColor=#e1d5e7;strokeColor=#9673a6;" parent="1" vertex="1">
          <mxGeometry x="658" y="2220" width="80" height="80" as="geometry" />
        </mxCell>
        <mxCell id="3VX2ZSSgDS8gGPlXFFOe-27" style="edgeStyle=orthogonalEdgeStyle;rounded=0;orthogonalLoop=1;jettySize=auto;html=1;" parent="1" source="3VX2ZSSgDS8gGPlXFFOe-28" target="3VX2ZSSgDS8gGPlXFFOe-26" edge="1">
          <mxGeometry relative="1" as="geometry" />
        </mxCell>
        <mxCell id="3VX2ZSSgDS8gGPlXFFOe-28" value="&lt;b&gt;&amp;nbsp;defalut&lt;br&gt;ingress B&lt;/b&gt;" style="shape=process;whiteSpace=wrap;html=1;backgroundOutline=1;fillColor=#f8cecc;strokeColor=#b85450;" parent="1" vertex="1">
          <mxGeometry x="488" y="2235" width="120" height="60" as="geometry" />
        </mxCell>
        <mxCell id="3VX2ZSSgDS8gGPlXFFOe-29" value="&lt;font style=&quot;font-size: 17px&quot;&gt;crd 封装层&lt;/font&gt;" style="text;html=1;strokeColor=none;fillColor=none;align=center;verticalAlign=middle;whiteSpace=wrap;rounded=0;" parent="1" vertex="1">
          <mxGeometry x="661" y="1900" width="110" height="20" as="geometry" />
        </mxCell>
        <mxCell id="3VX2ZSSgDS8gGPlXFFOe-30" value="&lt;font style=&quot;font-size: 17px&quot;&gt;crd 实现层&lt;/font&gt;" style="text;html=1;strokeColor=none;fillColor=none;align=center;verticalAlign=middle;whiteSpace=wrap;rounded=0;" parent="1" vertex="1">
          <mxGeometry x="653" y="2370" width="120" height="20" as="geometry" />
        </mxCell>
        <mxCell id="3VX2ZSSgDS8gGPlXFFOe-31" style="edgeStyle=orthogonalEdgeStyle;rounded=0;orthogonalLoop=1;jettySize=auto;html=1;exitX=1;exitY=0.5;exitDx=0;exitDy=0;entryX=0;entryY=0.75;entryDx=0;entryDy=0;" parent="1" source="3VX2ZSSgDS8gGPlXFFOe-33" target="3VX2ZSSgDS8gGPlXFFOe-20" edge="1">
          <mxGeometry relative="1" as="geometry" />
        </mxCell>
        <mxCell id="3VX2ZSSgDS8gGPlXFFOe-32" style="edgeStyle=orthogonalEdgeStyle;rounded=0;orthogonalLoop=1;jettySize=auto;html=1;" parent="1" source="3VX2ZSSgDS8gGPlXFFOe-33" target="3VX2ZSSgDS8gGPlXFFOe-22" edge="1">
          <mxGeometry relative="1" as="geometry" />
        </mxCell>
        <mxCell id="3VX2ZSSgDS8gGPlXFFOe-33" value="&lt;b&gt;ingressClass&lt;/b&gt;" style="shape=process;whiteSpace=wrap;html=1;backgroundOutline=1;strokeColor=#d6b656;fillColor=#33FF33;" parent="1" vertex="1">
          <mxGeometry x="52" y="2275" width="96" height="35" as="geometry" />
        </mxCell>
        <mxCell id="3VX2ZSSgDS8gGPlXFFOe-34" style="edgeStyle=orthogonalEdgeStyle;rounded=0;orthogonalLoop=1;jettySize=auto;html=1;entryX=0.5;entryY=1;entryDx=0;entryDy=0;" parent="1" source="3VX2ZSSgDS8gGPlXFFOe-35" target="3VX2ZSSgDS8gGPlXFFOe-22" edge="1">
          <mxGeometry relative="1" as="geometry" />
        </mxCell>
        <mxCell id="3VX2ZSSgDS8gGPlXFFOe-35" value="&lt;b&gt;Annotation&lt;/b&gt;" style="shape=process;whiteSpace=wrap;html=1;backgroundOutline=1;fillColor=#33FF33;dashed=1;" parent="1" vertex="1">
          <mxGeometry x="199" y="2370" width="98" height="40" as="geometry" />
        </mxCell>
        <mxCell id="3VX2ZSSgDS8gGPlXFFOe-36" style="edgeStyle=orthogonalEdgeStyle;rounded=0;orthogonalLoop=1;jettySize=auto;html=1;exitX=0.5;exitY=1;exitDx=0;exitDy=0;" parent="1" source="3VX2ZSSgDS8gGPlXFFOe-38" target="3VX2ZSSgDS8gGPlXFFOe-26" edge="1">
          <mxGeometry relative="1" as="geometry" />
        </mxCell>
        <mxCell id="3VX2ZSSgDS8gGPlXFFOe-37" style="edgeStyle=orthogonalEdgeStyle;rounded=0;orthogonalLoop=1;jettySize=auto;html=1;exitX=0.5;exitY=1;exitDx=0;exitDy=0;" parent="1" source="3VX2ZSSgDS8gGPlXFFOe-38" target="3VX2ZSSgDS8gGPlXFFOe-18" edge="1">
          <mxGeometry relative="1" as="geometry" />
        </mxCell>
        <mxCell id="3VX2ZSSgDS8gGPlXFFOe-38" value="lb crd&lt;br&gt;controller" style="ellipse;whiteSpace=wrap;html=1;fillColor=#e1d5e7;strokeColor=#9673a6;" parent="1" vertex="1">
          <mxGeometry x="561" y="1905" width="120" height="80" as="geometry" />
        </mxCell>
        <mxCell id="3VX2ZSSgDS8gGPlXFFOe-39" style="edgeStyle=orthogonalEdgeStyle;rounded=0;orthogonalLoop=1;jettySize=auto;html=1;exitX=0.5;exitY=1;exitDx=0;exitDy=0;" parent="1" source="3VX2ZSSgDS8gGPlXFFOe-42" target="3VX2ZSSgDS8gGPlXFFOe-20" edge="1">
          <mxGeometry relative="1" as="geometry" />
        </mxCell>
        <mxCell id="3VX2ZSSgDS8gGPlXFFOe-40" style="edgeStyle=orthogonalEdgeStyle;rounded=0;orthogonalLoop=1;jettySize=auto;html=1;exitX=0.5;exitY=1;exitDx=0;exitDy=0;" parent="1" source="3VX2ZSSgDS8gGPlXFFOe-42" target="3VX2ZSSgDS8gGPlXFFOe-28" edge="1">
          <mxGeometry relative="1" as="geometry" />
        </mxCell>
        <mxCell id="3VX2ZSSgDS8gGPlXFFOe-41" value="lbrule crd&lt;br&gt;路由规则 crd" style="ellipse;whiteSpace=wrap;html=1;strokeColor=#9673a6;fillColor=#CC0000;" parent="1" vertex="1">
          <mxGeometry x="121" y="1910" width="110" height="70" as="geometry" />
        </mxCell>
        <mxCell id="3VX2ZSSgDS8gGPlXFFOe-42" value="lbrule crd&lt;br&gt;controller" style="ellipse;whiteSpace=wrap;html=1;strokeColor=#9673a6;fillColor=#CC0000;" parent="1" vertex="1">
          <mxGeometry x="281" y="1910" width="110" height="70" as="geometry" />
        </mxCell>
        <mxCell id="-X7AAwdDszs8J3Nbo_TD-2" value="&lt;b&gt;ingressClass&lt;/b&gt;" style="shape=process;whiteSpace=wrap;html=1;backgroundOutline=1;strokeColor=#d6b656;fillColor=#33FF33;" parent="1" vertex="1">
          <mxGeometry x="414" y="470" width="96" height="35" as="geometry" />
        </mxCell>
        <mxCell id="-X7AAwdDszs8J3Nbo_TD-3" value="" style="rounded=0;whiteSpace=wrap;html=1;fillColor=#fff2cc;strokeColor=#d6b656;" parent="1" vertex="1">
          <mxGeometry x="460" y="320" width="264" height="80" as="geometry" />
        </mxCell>
        <mxCell id="-X7AAwdDszs8J3Nbo_TD-5" value="&lt;font style=&quot;font-size: 14px&quot;&gt;SLB 接口操作&lt;/font&gt;" style="text;html=1;strokeColor=none;fillColor=none;align=center;verticalAlign=middle;whiteSpace=wrap;rounded=0;" parent="1" vertex="1">
          <mxGeometry x="498" y="540" width="120" height="20" as="geometry" />
        </mxCell>
        <mxCell id="-X7AAwdDszs8J3Nbo_TD-8" style="edgeStyle=orthogonalEdgeStyle;rounded=0;orthogonalLoop=1;jettySize=auto;html=1;entryX=0;entryY=0.5;entryDx=0;entryDy=0;" parent="1" source="-X7AAwdDszs8J3Nbo_TD-6" target="fjbLA8fiJLUt6OWSz7z5-1" edge="1">
          <mxGeometry relative="1" as="geometry" />
        </mxCell>
        <mxCell id="-X7AAwdDszs8J3Nbo_TD-6" value="&lt;span lang=&quot;EN-US&quot; style=&quot;font-size: 10.5pt&quot;&gt;canary&lt;br&gt;标识灰度&lt;br&gt;&lt;/span&gt;" style="shape=note;whiteSpace=wrap;html=1;backgroundOutline=1;darkOpacity=0.05;strokeColor=#d6b656;fillColor=#fff2cc;" parent="1" vertex="1">
          <mxGeometry x="30" y="668.75" width="76" height="92.5" as="geometry" />
        </mxCell>
        <mxCell id="-X7AAwdDszs8J3Nbo_TD-19" value="" style="edgeStyle=orthogonalEdgeStyle;rounded=0;orthogonalLoop=1;jettySize=auto;html=1;" parent="1" source="-X7AAwdDszs8J3Nbo_TD-9" target="-X7AAwdDszs8J3Nbo_TD-18" edge="1">
          <mxGeometry relative="1" as="geometry" />
        </mxCell>
        <mxCell id="-X7AAwdDszs8J3Nbo_TD-9" value="" style="shape=curlyBracket;whiteSpace=wrap;html=1;rounded=1;fillColor=#33FF33;" parent="1" vertex="1">
          <mxGeometry x="100" y="540" width="20" height="120" as="geometry" />
        </mxCell>
        <mxCell id="-X7AAwdDszs8J3Nbo_TD-12" value="controller监听ingress,请求SLB实例" style="text;html=1;strokeColor=none;fillColor=none;align=center;verticalAlign=middle;whiteSpace=wrap;rounded=0;" parent="1" vertex="1">
          <mxGeometry x="498" y="580" width="159" height="15" as="geometry" />
        </mxCell>
        <mxCell id="-X7AAwdDszs8J3Nbo_TD-14" value="controller将SLB实例写入annotion" style="text;html=1;strokeColor=none;fillColor=none;align=left;verticalAlign=middle;whiteSpace=wrap;rounded=0;" parent="1" vertex="1">
          <mxGeometry x="268" y="545" width="132" height="15" as="geometry" />
        </mxCell>
        <mxCell id="-X7AAwdDszs8J3Nbo_TD-18" value="annotation&lt;br&gt;SLB唯一标识" style="shape=cylinder;whiteSpace=wrap;html=1;boundedLbl=1;backgroundOutline=1;rounded=1;fillColor=#fff2cc;strokeColor=#d6b656;" parent="1" vertex="1">
          <mxGeometry x="10" y="560" width="60" height="80" as="geometry" />
        </mxCell>
        <mxCell id="fNy8cyDAZZY_VoHiJf9O-3" style="edgeStyle=orthogonalEdgeStyle;rounded=0;orthogonalLoop=1;jettySize=auto;html=1;exitX=0;exitY=0.5;exitDx=0;exitDy=0;dashed=1;" edge="1" parent="1" source="fNy8cyDAZZY_VoHiJf9O-1" target="hpvgZ9Z2Bp3K3JRqvIrx-5">
          <mxGeometry relative="1" as="geometry" />
        </mxCell>
        <mxCell id="fNy8cyDAZZY_VoHiJf9O-1" value="SLB&lt;br&gt;A" style="ellipse;whiteSpace=wrap;html=1;aspect=fixed;" vertex="1" parent="1">
          <mxGeometry x="480" y="350" width="50" height="50" as="geometry" />
        </mxCell>
        <mxCell id="fNy8cyDAZZY_VoHiJf9O-4" style="edgeStyle=orthogonalEdgeStyle;rounded=0;orthogonalLoop=1;jettySize=auto;html=1;exitX=1;exitY=0.5;exitDx=0;exitDy=0;entryX=1;entryY=0.5;entryDx=0;entryDy=0;dashed=1;" edge="1" parent="1" source="fNy8cyDAZZY_VoHiJf9O-2" target="hpvgZ9Z2Bp3K3JRqvIrx-15">
          <mxGeometry relative="1" as="geometry" />
        </mxCell>
        <mxCell id="fNy8cyDAZZY_VoHiJf9O-2" value="&lt;span&gt;SLB&lt;/span&gt;&lt;br&gt;B" style="ellipse;whiteSpace=wrap;html=1;aspect=fixed;" vertex="1" parent="1">
          <mxGeometry x="630" y="350" width="50" height="50" as="geometry" />
        </mxCell>
        <mxCell id="fNy8cyDAZZY_VoHiJf9O-5" value="&lt;font style=&quot;font-size: 14px&quot;&gt;SLB Cluster&lt;/font&gt;" style="text;html=1;strokeColor=none;fillColor=none;align=center;verticalAlign=middle;whiteSpace=wrap;rounded=0;" vertex="1" parent="1">
          <mxGeometry x="512.5" y="320" width="130" height="25" as="geometry" />
        </mxCell>
        <mxCell id="fNy8cyDAZZY_VoHiJf9O-9" value="用户创建ingress" style="text;html=1;strokeColor=none;fillColor=none;align=left;verticalAlign=middle;whiteSpace=wrap;rounded=0;" vertex="1" parent="1">
          <mxGeometry x="-90" y="525" width="132" height="15" as="geometry" />
        </mxCell>
        <mxCell id="fNy8cyDAZZY_VoHiJf9O-14" value="ingress" style="shape=umlLifeline;perimeter=lifelinePerimeter;whiteSpace=wrap;html=1;container=1;collapsible=0;recursiveResize=0;outlineConnect=0;" vertex="1" parent="1">
          <mxGeometry x="272" y="1130" width="100" height="300" as="geometry" />
        </mxCell>
        <mxCell id="fNy8cyDAZZY_VoHiJf9O-23" value="创建ingress" style="html=1;verticalAlign=bottom;startArrow=circle;startFill=1;endArrow=open;startSize=6;endSize=8;dashed=1;" edge="1" parent="fNy8cyDAZZY_VoHiJf9O-14">
          <mxGeometry x="0.2308" y="10" width="80" relative="1" as="geometry">
            <mxPoint x="-111" y="90" as="sourcePoint" />
            <mxPoint x="59" y="90" as="targetPoint" />
            <mxPoint as="offset" />
          </mxGeometry>
        </mxCell>
        <mxCell id="fNy8cyDAZZY_VoHiJf9O-40" value="解析灰度ingress规则" style="html=1;verticalAlign=bottom;endArrow=block;dashed=1;" edge="1" parent="fNy8cyDAZZY_VoHiJf9O-14" target="fNy8cyDAZZY_VoHiJf9O-16">
          <mxGeometry width="80" relative="1" as="geometry">
            <mxPoint x="58" y="230" as="sourcePoint" />
            <mxPoint x="138" y="230" as="targetPoint" />
          </mxGeometry>
        </mxCell>
        <mxCell id="fNy8cyDAZZY_VoHiJf9O-36" value="灰度ingress 实例" style="html=1;verticalAlign=bottom;startArrow=circle;startFill=1;endArrow=open;startSize=6;endSize=8;dashed=1;" edge="1" parent="fNy8cyDAZZY_VoHiJf9O-14">
          <mxGeometry x="0.2308" y="10" width="80" relative="1" as="geometry">
            <mxPoint x="-112" y="230" as="sourcePoint" />
            <mxPoint x="58" y="230" as="targetPoint" />
            <mxPoint as="offset" />
          </mxGeometry>
        </mxCell>
        <mxCell id="fNy8cyDAZZY_VoHiJf9O-15" value="Actor" style="shape=umlActor;verticalLabelPosition=bottom;verticalAlign=top;html=1;" vertex="1" parent="1">
          <mxGeometry x="118" y="1240" width="30" height="60" as="geometry" />
        </mxCell>
        <mxCell id="fNy8cyDAZZY_VoHiJf9O-16" value="ingress-controller" style="shape=umlLifeline;perimeter=lifelinePerimeter;whiteSpace=wrap;html=1;container=1;collapsible=0;recursiveResize=0;outlineConnect=0;" vertex="1" parent="1">
          <mxGeometry x="518" y="1130" width="100" height="300" as="geometry" />
        </mxCell>
        <mxCell id="fNy8cyDAZZY_VoHiJf9O-17" value="slb-cluster" style="shape=umlLifeline;perimeter=lifelinePerimeter;whiteSpace=wrap;html=1;container=1;collapsible=0;recursiveResize=0;outlineConnect=0;" vertex="1" parent="1">
          <mxGeometry x="773" y="1130" width="100" height="300" as="geometry" />
        </mxCell>
        <mxCell id="fNy8cyDAZZY_VoHiJf9O-25" value="annnotion 是否包含slb id" style="text;html=1;strokeColor=none;fillColor=none;align=center;verticalAlign=middle;whiteSpace=wrap;rounded=0;" vertex="1" parent="1">
          <mxGeometry x="180" y="1220" width="140" height="30" as="geometry" />
        </mxCell>
        <mxCell id="fNy8cyDAZZY_VoHiJf9O-28" value="创建SLB实例" style="html=1;verticalAlign=bottom;endArrow=block;dashed=1;" edge="1" parent="1" source="fNy8cyDAZZY_VoHiJf9O-16" target="fNy8cyDAZZY_VoHiJf9O-17">
          <mxGeometry width="80" relative="1" as="geometry">
            <mxPoint x="650" y="1230" as="sourcePoint" />
            <mxPoint x="730" y="1230" as="targetPoint" />
            <Array as="points">
              <mxPoint x="720" y="1220" />
            </Array>
          </mxGeometry>
        </mxCell>
        <mxCell id="fNy8cyDAZZY_VoHiJf9O-29" value="ingress-controllerj监听ingress" style="html=1;verticalAlign=bottom;endArrow=block;dashed=1;" edge="1" parent="1">
          <mxGeometry width="80" relative="1" as="geometry">
            <mxPoint x="330" y="1220" as="sourcePoint" />
            <mxPoint x="570" y="1220" as="targetPoint" />
            <Array as="points">
              <mxPoint x="482.5" y="1220" />
            </Array>
          </mxGeometry>
        </mxCell>
        <mxCell id="fNy8cyDAZZY_VoHiJf9O-30" value="annnotion 是否包含slb id" style="text;html=1;strokeColor=none;fillColor=none;align=center;verticalAlign=middle;whiteSpace=wrap;rounded=0;" vertex="1" parent="1">
          <mxGeometry x="372" y="1220" width="140" height="30" as="geometry" />
        </mxCell>
        <mxCell id="fNy8cyDAZZY_VoHiJf9O-31" value="返回SLB info" style="html=1;verticalAlign=bottom;endArrow=open;dashed=1;endSize=8;strokeColor=#CC0000;" edge="1" parent="1" source="fNy8cyDAZZY_VoHiJf9O-17" target="fNy8cyDAZZY_VoHiJf9O-16">
          <mxGeometry relative="1" as="geometry">
            <mxPoint x="800" y="1240" as="sourcePoint" />
            <mxPoint x="750" y="1240" as="targetPoint" />
            <Array as="points">
              <mxPoint x="700" y="1260" />
            </Array>
          </mxGeometry>
        </mxCell>
        <mxCell id="fNy8cyDAZZY_VoHiJf9O-32" value="更新slb信息到annotation以及nodeIP&amp;nbsp;" style="html=1;verticalAlign=bottom;endArrow=open;dashed=1;endSize=8;" edge="1" parent="1" source="fNy8cyDAZZY_VoHiJf9O-16" target="fNy8cyDAZZY_VoHiJf9O-14">
          <mxGeometry relative="1" as="geometry">
            <mxPoint x="832.5" y="1270" as="sourcePoint" />
            <mxPoint x="577.5" y="1270" as="targetPoint" />
            <Array as="points" />
          </mxGeometry>
        </mxCell>
        <mxCell id="fNy8cyDAZZY_VoHiJf9O-37" value="&lt;span style=&quot;color: rgb(0 , 0 , 0) ; font-family: &amp;#34;helvetica&amp;#34; ; font-size: 12px ; font-style: normal ; font-weight: 400 ; letter-spacing: normal ; text-align: center ; text-indent: 0px ; text-transform: none ; word-spacing: 0px ; background-color: rgb(248 , 249 , 250) ; display: inline ; float: none&quot;&gt;annnotion&amp;nbsp;&lt;br&gt;1、canary字段设定为true&lt;br&gt;2、包含使用slb的 uid&lt;br&gt;3、灰度策略配置&lt;br&gt;&lt;/span&gt;" style="text;whiteSpace=wrap;html=1;" vertex="1" parent="1">
          <mxGeometry x="148" y="1380" width="172" height="50" as="geometry" />
        </mxCell>
        <mxCell id="fNy8cyDAZZY_VoHiJf9O-41" value="调用slb 灰度接口，创建规则" style="html=1;verticalAlign=bottom;endArrow=block;dashed=1;" edge="1" parent="1">
          <mxGeometry width="80" relative="1" as="geometry">
            <mxPoint x="579.25" y="1360" as="sourcePoint" />
            <mxPoint x="816.75" y="1360" as="targetPoint" />
          </mxGeometry>
        </mxCell>
      </root>
    </mxGraphModel>
  </diagram>
</mxfile>
